<svg width="23" height="15" viewBox="0 0 23 15" fill="none" xmlns="http://www.w3.org/2000/svg">
<path d="M15.25 6.03906C16.91 6.03906 18.24 4.69906 18.24 3.03906C18.24 1.37906 16.91 0.0390625 15.25 0.0390625C13.59 0.0390625 12.25 1.37906 12.25 3.03906C12.25 4.69906 13.59 6.03906 15.25 6.03906ZM7.25 6.03906C8.91 6.03906 10.24 4.69906 10.24 3.03906C10.24 1.37906 8.91 0.0390625 7.25 0.0390625C5.59 0.0390625 4.25 1.37906 4.25 3.03906C4.25 4.69906 5.59 6.03906 7.25 6.03906ZM7.25 8.03906C4.92 8.03906 0.25 9.20906 0.25 11.5391V13.0391C0.25 13.5891 0.7 14.0391 1.25 14.0391H13.25C13.8 14.0391 14.25 13.5891 14.25 13.0391V11.5391C14.25 9.20906 9.58 8.03906 7.25 8.03906ZM15.25 8.03906C14.96 8.03906 14.63 8.05906 14.28 8.08906C14.3 8.09906 14.31 8.11906 14.32 8.12906C15.46 8.95906 16.25 10.0691 16.25 11.5391V13.0391C16.25 13.3891 16.18 13.7291 16.07 14.0391H21.25C21.8 14.0391 22.25 13.5891 22.25 13.0391V11.5391C22.25 9.20906 17.58 8.03906 15.25 8.03906Z" fill="#AEB6CA"/>
</svg>
