<svg width="49" height="41" viewBox="0 0 49 41" fill="none" xmlns="http://www.w3.org/2000/svg">
    <path opacity="0.3" fillRule="evenodd" clipRule="evenodd"
        d="M9.89945 15.8995L24.0416 1.75736C26.3847 -0.585786 30.1837 -0.585786 32.5269 1.75736L46.669 15.8995C49.0121 18.2426 49.0121 22.0416 46.669 24.3848L32.5269 38.5269C30.1837 40.8701 26.3847 40.8701 24.0416 38.5269L9.89945 24.3848C7.5563 22.0416 7.5563 18.2426 9.89945 15.8995Z"
        fill="#3167EB" />
    <path fillRule="evenodd" clipRule="evenodd"
        d="M2.61527 15.8995L16.7574 1.75736C19.1005 -0.585786 22.8995 -0.585786 25.2427 1.75736L39.3848 15.8995C41.728 18.2426 41.728 22.0416 39.3848 24.3848L25.2427 38.5269C22.8995 40.8701 19.1005 40.8701 16.7574 38.5269L2.61527 24.3848C0.272124 22.0416 0.272124 18.2426 2.61527 15.8995Z"
        fill="#3167EB" />
    <path fillRule="evenodd" clipRule="evenodd"
        d="M14.6967 14.3389C16.0155 13.0201 18.1562 13.0203 19.4737 14.3378L19.9516 13.8621C20.48 13.3338 21.3624 13.3062 21.9206 13.7987L28.0187 19.1794C28.5778 19.6727 28.6046 20.4991 28.0778 21.0259L21.3837 27.72C20.8573 28.2464 20.0298 28.2191 19.5372 27.6609L14.1565 21.5628C13.6632 21.0037 13.6907 20.123 14.2199 19.5938L14.6967 19.117C13.3774 17.7977 13.3789 15.6568 14.6967 14.3389ZM18.5192 15.2945C17.7283 14.5036 16.4433 14.5036 15.6524 15.2945C14.862 16.0849 14.8611 17.3701 15.6512 18.1603L18.5192 15.2945ZM15.6524 20.0726L15.1756 20.5494C15.151 20.574 15.1487 20.6446 15.1699 20.6686L20.4956 26.6968L27.0569 20.1331L21.0265 14.8121C21.0034 14.7917 20.931 14.794 20.9073 14.8177L20.4305 15.2945L19.4749 16.2502L16.608 19.117L15.6524 20.0726Z"
        fill="white" />
</svg>