<svg width="120" height="41" viewBox="0 0 120 41" fill="none" xmlns="http://www.w3.org/2000/svg">
    <path opacity="0.3" fillRule="evenodd" clipRule="evenodd"
        d="M9.89945 15.8995L24.0416 1.75736C26.3847 -0.585786 30.1837 -0.585786 32.5269 1.75736L46.669 15.8995C49.0121 18.2426 49.0121 22.0416 46.669 24.3848L32.5269 38.5269C30.1837 40.8701 26.3847 40.8701 24.0416 38.5269L9.89945 24.3848C7.5563 22.0416 7.5563 18.2426 9.89945 15.8995Z"
        fill="#3167EB" />
    <path fillRule="evenodd" clipRule="evenodd"
        d="M2.61527 15.8995L16.7574 1.75736C19.1005 -0.585786 22.8995 -0.585786 25.2427 1.75736L39.3848 15.8995C41.728 18.2426 41.728 22.0416 39.3848 24.3848L25.2427 38.5269C22.8995 40.8701 19.1005 40.8701 16.7574 38.5269L2.61527 24.3848C0.272124 22.0416 0.272124 18.2426 2.61527 15.8995Z"
        fill="#3167EB" />
    <path fillRule="evenodd" clipRule="evenodd"
        d="M14.6967 14.3389C16.0155 13.0201 18.1562 13.0203 19.4737 14.3378L19.9516 13.8621C20.48 13.3338 21.3624 13.3062 21.9206 13.7987L28.0187 19.1794C28.5778 19.6727 28.6046 20.4991 28.0778 21.0259L21.3837 27.72C20.8573 28.2464 20.0298 28.2191 19.5372 27.6609L14.1565 21.5628C13.6632 21.0037 13.6907 20.123 14.2199 19.5938L14.6967 19.117C13.3774 17.7977 13.3789 15.6568 14.6967 14.3389ZM18.5192 15.2945C17.7283 14.5036 16.4433 14.5036 15.6524 15.2945C14.862 16.0849 14.8611 17.3701 15.6512 18.1603L18.5192 15.2945ZM15.6524 20.0726L15.1756 20.5494C15.151 20.574 15.1487 20.6446 15.1699 20.6686L20.4956 26.6968L27.0569 20.1331L21.0265 14.8121C21.0034 14.7917 20.931 14.794 20.9073 14.8177L20.4305 15.2945L19.4749 16.2502L16.608 19.117L15.6524 20.0726Z"
        fill="white" />
    <path
        d="M58.1484 24.1421L59.3359 20.4936H65.1094L66.2969 24.1421H69.9219L64.4062 8.14209H60.0469L54.5234 24.1421H58.1484ZM64.2578 17.853H60.1953L62.1641 11.7983H62.2891L64.2578 17.853ZM74.6406 24.3374C75.9323 24.3374 77.1146 23.8324 78.1875 22.8225V24.1421H81.4687V8.14209H78.1484V13.3904C77.1432 12.454 75.9713 11.9858 74.6328 11.9858C72 11.9858 69.7734 14.0327 69.7734 18.1577C69.7734 22.1733 71.9062 24.3374 74.6406 24.3374ZM75.6719 21.689C74.0542 21.689 73.1719 20.2358 73.1719 18.1421C73.1719 16.064 74.0387 14.6343 75.6719 14.6343C77.274 14.6343 78.1719 16.0015 78.1719 18.1421C78.1719 20.2827 77.2586 21.689 75.6719 21.689ZM86.5234 24.1421V16.939C86.5234 15.6108 87.3672 14.728 88.4766 14.728C89.5703 14.728 90.3047 15.478 90.3047 16.6577V24.1421H93.5312V16.814C93.5312 15.5718 94.2422 14.728 95.4531 14.728C96.5156 14.728 97.3125 15.3921 97.3125 16.728V24.1421H100.633V16.0718C100.633 13.4702 99.0859 11.9858 96.8515 11.9858C95.0937 11.9858 93.7266 12.8843 93.2344 14.2593H93.1094C92.7266 12.8686 91.5 11.9858 89.8516 11.9858C88.2344 11.9858 87.0078 12.8452 86.5078 14.2593H86.3672V12.1421H83.1953V24.1421H86.5234ZM103.93 10.5952C104.922 10.5952 105.734 9.8374 105.734 8.90771C105.734 7.98584 104.922 7.22803 103.93 7.22803C102.945 7.22803 102.133 7.98584 102.133 8.90771C102.133 9.8374 102.945 10.5952 103.93 10.5952ZM105.586 24.1421V12.1421H102.258V24.1421H105.586ZM110.57 24.1421V17.2046C110.578 15.6577 111.5 14.7515 112.844 14.7515C114.18 14.7515 114.984 15.6265 114.977 17.0952V24.1421H118.305V16.5015C118.305 13.7046 116.664 11.9858 114.164 11.9858C112.383 11.9858 111.094 12.8608 110.555 14.2593H110.414V12.1421H107.242V24.1421H110.57Z"
        fill="#3167EB" />
    <path
        d="M57.4043 34.2827C58.127 34.2827 58.7207 34.1069 59.1855 33.7554C59.6504 33.4038 59.9688 32.9097 60.1406 32.2729L59.0508 32.1382C58.8906 32.5835 58.6738 32.9077 58.4004 33.1108C58.127 33.314 57.7969 33.4155 57.4102 33.4155C56.8906 33.4155 56.457 33.2339 56.1094 32.8706C55.7617 32.5073 55.5684 31.9839 55.5293 31.3003H60.1699C60.1738 31.1753 60.1758 31.0815 60.1758 31.019C60.1758 29.9917 59.9121 29.1948 59.3848 28.6284C58.8574 28.062 58.1777 27.7788 57.3457 27.7788C56.4863 27.7788 55.7871 28.0679 55.248 28.646C54.709 29.2241 54.4395 30.0366 54.4395 31.0835C54.4395 32.0952 54.7061 32.8813 55.2393 33.4419C55.7725 34.0024 56.4941 34.2827 57.4043 34.2827ZM59.0625 30.4331H55.5879C55.623 29.8901 55.8057 29.4565 56.1357 29.1323C56.4658 28.8081 56.873 28.646 57.3574 28.646C57.8926 28.646 58.3281 28.8491 58.6641 29.2554C58.8828 29.5171 59.0156 29.9097 59.0625 30.4331ZM64.3454 34.2827C65.0251 34.2827 65.5983 34.0806 66.0651 33.6763C66.5319 33.272 66.8219 32.7124 66.9352 31.9976L65.8981 31.8628C65.8239 32.3901 65.6481 32.7808 65.3708 33.0347C65.0934 33.2886 64.7477 33.4155 64.3337 33.4155C63.818 33.4155 63.4001 33.2261 63.0798 32.8472C62.7594 32.4683 62.5993 31.8608 62.5993 31.0249C62.5993 30.2007 62.7653 29.5981 63.0973 29.2173C63.4294 28.8364 63.861 28.646 64.3923 28.646C64.7438 28.646 65.0436 28.7515 65.2917 28.9624C65.5397 29.1733 65.7126 29.4878 65.8102 29.9058L66.8356 29.7476C66.7145 29.1187 66.4391 28.6333 66.0094 28.2915C65.5798 27.9497 65.027 27.7788 64.3512 27.7788C63.8161 27.7788 63.321 27.9048 62.8659 28.1567C62.4108 28.4087 62.0719 28.7866 61.8493 29.2905C61.6266 29.7944 61.5153 30.3823 61.5153 31.0542C61.5153 32.0933 61.7741 32.8911 62.2917 33.4478C62.8092 34.0044 63.4938 34.2827 64.3454 34.2827ZM70.7357 34.2827C71.2787 34.2827 71.7796 34.1558 72.2386 33.9019C72.6976 33.6479 73.0472 33.2915 73.2874 32.8325C73.5277 32.3735 73.6478 31.7437 73.6478 30.9429C73.6478 29.9546 73.3763 29.1802 72.8333 28.6196C72.2904 28.0591 71.5912 27.7788 70.7357 27.7788C69.9662 27.7788 69.3138 28.0093 68.7787 28.4702C68.138 29.0249 67.8177 29.8784 67.8177 31.0308C67.8177 32.0815 68.0863 32.8862 68.6234 33.4448C69.1605 34.0034 69.8646 34.2827 70.7357 34.2827ZM70.7357 33.4155C70.2083 33.4155 69.7708 33.2173 69.4232 32.8208C69.0755 32.4243 68.9017 31.8276 68.9017 31.0308C68.9017 30.2339 69.0755 29.6382 69.4232 29.2437C69.7708 28.8491 70.2083 28.6519 70.7357 28.6519C71.2552 28.6519 71.6898 28.8501 72.0394 29.2466C72.389 29.6431 72.5638 30.2261 72.5638 30.9956C72.5638 31.812 72.39 32.4194 72.0423 32.8179C71.6947 33.2163 71.2591 33.4155 70.7357 33.4155ZM76.3115 34.1421V30.9136C76.3115 30.3472 76.3682 29.9136 76.4815 29.6128C76.5947 29.312 76.7774 29.0835 77.0293 28.9272C77.2813 28.771 77.5557 28.6929 77.8526 28.6929C78.2432 28.6929 78.5244 28.8101 78.6963 29.0444C78.8682 29.2788 78.9541 29.6304 78.9541 30.0991V34.1421H80.0088V30.5269C80.0088 29.8862 80.1533 29.4204 80.4424 29.1294C80.7315 28.8384 81.0947 28.6929 81.5322 28.6929C81.7744 28.6929 81.9854 28.7495 82.1651 28.8628C82.3447 28.9761 82.4688 29.1255 82.5371 29.311C82.6055 29.4966 82.6397 29.8003 82.6397 30.2222V34.1421H83.6885V29.8706C83.6885 29.1597 83.5225 28.6333 83.1904 28.2915C82.8584 27.9497 82.3838 27.7788 81.7666 27.7788C80.9776 27.7788 80.3369 28.1421 79.8447 28.8687C79.7236 28.5249 79.5156 28.2573 79.2207 28.0659C78.9258 27.8745 78.5479 27.7788 78.0869 27.7788C77.6729 27.7788 77.3037 27.8716 76.9795 28.0571C76.6553 28.2427 76.3955 28.4878 76.2002 28.7925V27.9194H75.2569V34.1421H76.3115ZM86.6804 34.1421V30.9136C86.6804 30.3472 86.737 29.9136 86.8503 29.6128C86.9636 29.312 87.1462 29.0835 87.3981 28.9272C87.6501 28.771 87.9245 28.6929 88.2214 28.6929C88.612 28.6929 88.8932 28.8101 89.0651 29.0444C89.237 29.2788 89.3229 29.6304 89.3229 30.0991V34.1421H90.3776V30.5269C90.3776 29.8862 90.5222 29.4204 90.8112 29.1294C91.1003 28.8384 91.4636 28.6929 91.9011 28.6929C92.1432 28.6929 92.3542 28.7495 92.5339 28.8628C92.7136 28.9761 92.8376 29.1255 92.9059 29.311C92.9743 29.4966 93.0085 29.8003 93.0085 30.2222V34.1421H94.0573V29.8706C94.0573 29.1597 93.8913 28.6333 93.5593 28.2915C93.2272 27.9497 92.7526 27.7788 92.1354 27.7788C91.3464 27.7788 90.7057 28.1421 90.2136 28.8687C90.0925 28.5249 89.8845 28.2573 89.5895 28.0659C89.2946 27.8745 88.9167 27.7788 88.4557 27.7788C88.0417 27.7788 87.6725 27.8716 87.3483 28.0571C87.0241 28.2427 86.7643 28.4878 86.569 28.7925V27.9194H85.6257V34.1421H86.6804ZM98.6078 34.2827C99.3304 34.2827 99.9242 34.1069 100.389 33.7554C100.854 33.4038 101.172 32.9097 101.344 32.2729L100.254 32.1382C100.094 32.5835 99.8773 32.9077 99.6039 33.1108C99.3304 33.314 99.0004 33.4155 98.6136 33.4155C98.0941 33.4155 97.6605 33.2339 97.3129 32.8706C96.9652 32.5073 96.7718 31.9839 96.7328 31.3003H101.373C101.377 31.1753 101.379 31.0815 101.379 31.019C101.379 29.9917 101.116 29.1948 100.588 28.6284C100.061 28.062 99.3812 27.7788 98.5492 27.7788C97.6898 27.7788 96.9906 28.0679 96.4515 28.646C95.9125 29.2241 95.6429 30.0366 95.6429 31.0835C95.6429 32.0952 95.9095 32.8813 96.4427 33.4419C96.9759 34.0024 97.6976 34.2827 98.6078 34.2827ZM100.266 30.4331H96.7914C96.8265 29.8901 97.0091 29.4565 97.3392 29.1323C97.6693 28.8081 98.0765 28.646 98.5609 28.646C99.0961 28.646 99.5316 28.8491 99.8675 29.2554C100.086 29.5171 100.219 29.9097 100.266 30.4331ZM104.084 34.1421V30.8843C104.084 30.439 104.143 30.0288 104.26 29.6538C104.338 29.4077 104.469 29.2153 104.652 29.0767C104.836 28.938 105.043 28.8687 105.273 28.8687C105.531 28.8687 105.789 28.9448 106.047 29.0972L106.41 28.1187C106.043 27.8921 105.682 27.7788 105.326 27.7788C105.08 27.7788 104.855 27.8491 104.649 27.9897C104.444 28.1304 104.221 28.4214 103.979 28.8628V27.9194H103.029V34.1421H104.084ZM109.918 34.2827C110.597 34.2827 111.171 34.0806 111.637 33.6763C112.104 33.272 112.394 32.7124 112.508 31.9976L111.47 31.8628C111.396 32.3901 111.22 32.7808 110.943 33.0347C110.666 33.2886 110.32 33.4155 109.906 33.4155C109.39 33.4155 108.972 33.2261 108.652 32.8472C108.332 32.4683 108.172 31.8608 108.172 31.0249C108.172 30.2007 108.338 29.5981 108.67 29.2173C109.002 28.8364 109.433 28.646 109.965 28.646C110.316 28.646 110.616 28.7515 110.864 28.9624C111.112 29.1733 111.285 29.4878 111.383 29.9058L112.408 29.7476C112.287 29.1187 112.011 28.6333 111.582 28.2915C111.152 27.9497 110.599 27.7788 109.924 27.7788C109.388 27.7788 108.893 27.9048 108.438 28.1567C107.983 28.4087 107.644 28.7866 107.422 29.2905C107.199 29.7944 107.088 30.3823 107.088 31.0542C107.088 32.0933 107.346 32.8911 107.864 33.4478C108.382 34.0044 109.066 34.2827 109.918 34.2827ZM116.396 34.2827C117.119 34.2827 117.712 34.1069 118.177 33.7554C118.642 33.4038 118.96 32.9097 119.132 32.2729L118.042 32.1382C117.882 32.5835 117.665 32.9077 117.392 33.1108C117.119 33.314 116.788 33.4155 116.402 33.4155C115.882 33.4155 115.449 33.2339 115.101 32.8706C114.753 32.5073 114.56 31.9839 114.521 31.3003H119.162C119.165 31.1753 119.167 31.0815 119.167 31.019C119.167 29.9917 118.904 29.1948 118.376 28.6284C117.849 28.062 117.169 27.7788 116.337 27.7788C115.478 27.7788 114.779 28.0679 114.24 28.646C113.701 29.2241 113.431 30.0366 113.431 31.0835C113.431 32.0952 113.698 32.8813 114.231 33.4419C114.764 34.0024 115.486 34.2827 116.396 34.2827ZM118.054 30.4331H114.579C114.615 29.8901 114.797 29.4565 115.127 29.1323C115.457 28.8081 115.865 28.646 116.349 28.646C116.884 28.646 117.32 28.8491 117.656 29.2554C117.874 29.5171 118.007 29.9097 118.054 30.4331Z"
        fill="#7CA2FF" />
</svg>