<svg width="335" height="233" viewBox="0 0 335 233" fill="none" xmlns="http://www.w3.org/2000/svg">
<g clip-path="url(#clip0_1107_0)">
<path d="M63.5541 50.0195C74.1209 50.0195 82.6869 41.4372 82.6869 30.8503C82.6869 20.2635 74.1209 11.6812 63.5541 11.6812C52.9874 11.6812 44.4214 20.2635 44.4214 30.8503C44.4214 41.4372 52.9874 50.0195 63.5541 50.0195Z" fill="#FFAF65"/>
<path d="M156.642 102.771C156.642 148.002 129.804 163.795 96.6983 163.795C63.5922 163.795 36.7544 148.002 36.7544 102.771C36.7544 57.5406 96.6983 0 96.6983 0C96.6983 0 156.642 57.5406 156.642 102.771Z" fill="#FFE9B1"/>
<path d="M94.5145 156.876L95.1285 119.022L120.678 72.1911L95.2248 113.084L95.5007 96.063L113.109 62.1815L95.5737 91.5588L96.0699 60.9463L114.926 33.9723L96.1482 56.1324L96.4582 0L94.5091 74.3093L94.6693 71.2437L75.4986 41.8439L94.362 77.1283L92.5758 111.317L92.5226 110.41L70.4219 79.4709L92.4556 113.616L92.2323 117.891L92.1922 117.956L92.2105 118.307L87.6787 205.047H93.7336L94.4601 160.244L116.439 126.183L94.5145 156.876Z" fill="#97A0B8"/>
<path d="M335 121.296C335 158.32 313.032 171.247 285.933 171.247C258.834 171.247 236.866 158.32 236.866 121.296C236.866 84.273 285.933 37.1733 285.933 37.1733C285.933 37.1733 335 84.273 335 121.296Z" fill="#FFE9B1"/>
<path d="M284.145 165.584L284.648 134.599L305.561 96.2653L284.727 129.738L284.953 115.806L299.366 88.0717L285.012 112.119L285.419 87.0608L300.853 64.9812L285.482 83.1207L285.736 37.1733L284.141 97.9989L284.272 95.4899L268.58 71.4245L284.02 100.307L282.558 128.292L282.515 127.549L264.424 102.224L282.46 130.173L282.277 133.673L282.244 133.726L282.259 134.013L278.55 205.014H283.506L284.101 168.34L302.092 140.46L284.145 165.584Z" fill="#97A0B8"/>
<path d="M165.795 212.213C257.361 212.213 331.59 208.453 331.59 203.816C331.59 199.178 257.361 195.419 165.795 195.419C74.2289 195.419 0 199.178 0 203.816C0 208.453 74.2289 212.213 165.795 212.213Z" fill="#E8E8E8"/>
<path d="M266.796 219.127C282.479 219.127 295.192 218.483 295.192 217.689C295.192 216.894 282.479 216.25 266.796 216.25C251.113 216.25 238.399 216.894 238.399 217.689C238.399 218.483 251.113 219.127 266.796 219.127Z" fill="#E8E8E8"/>
<path d="M164.039 233C179.722 233 192.436 232.356 192.436 231.562C192.436 230.768 179.722 230.124 164.039 230.124C148.356 230.124 135.643 230.768 135.643 231.562C135.643 232.356 148.356 233 164.039 233Z" fill="#DFDFDF"/>
<path d="M86.0806 223.215C121.911 223.215 150.957 221.744 150.957 219.93C150.957 218.115 121.911 216.644 86.0806 216.644C50.2504 216.644 21.2043 218.115 21.2043 219.93C21.2043 221.744 50.2504 223.215 86.0806 223.215Z" fill="#E8E8E8"/>
<path d="M39.5661 188.304L32.3918 188.219L32.2404 201.098L39.4147 201.182L39.5661 188.304Z" fill="#464D5F"/>
<path d="M44.1991 201.089C44.2137 199.849 41.5489 198.811 38.247 198.772C34.9451 198.733 32.2566 199.708 32.242 200.948C32.2274 202.189 34.8923 203.226 38.1941 203.265C41.496 203.304 44.1845 202.33 44.1991 201.089Z" fill="#464D5F"/>
<path d="M65.049 182.808C65.049 199.305 55.2615 205.065 43.1869 205.065C42.9071 205.065 42.6279 205.061 42.349 205.055C41.7896 205.043 41.2355 205.017 40.688 204.979C29.7909 204.206 21.3247 198.15 21.3247 182.808C21.3247 166.932 41.5751 146.897 43.0963 145.415L43.0989 145.412C43.1576 145.355 43.1869 145.327 43.1869 145.327C43.1869 145.327 65.049 166.312 65.049 182.808Z" fill="#B9FFC0"/>
<path d="M42.3903 202.541L50.3862 191.347L42.3703 203.77L42.349 205.055C41.7895 205.043 41.2354 205.017 40.688 204.979L41.5498 188.475L41.5431 188.347L41.5578 188.323L41.639 186.764L33.603 174.31L41.6643 185.595L41.683 185.926L42.3343 173.456L35.4545 160.587L42.4182 171.267L43.0962 145.415L43.0989 145.327V145.412L42.9857 165.798L49.8348 157.717L42.9577 167.555L42.7765 178.719L49.1715 168.004L42.7499 180.362L42.6487 186.569L51.9327 171.656L42.614 188.735L42.3903 202.541Z" fill="#97A0B8"/>
<path d="M215.013 188.159L208.154 190.271L211.931 202.582L218.789 200.47L215.013 188.159Z" fill="#464D5F"/>
<path d="M228.728 183.937L221.87 186.049L225.646 198.36L232.505 196.248L228.728 183.937Z" fill="#464D5F"/>
<path d="M218.348 203.112C221.505 202.141 223.769 200.391 223.405 199.205C223.041 198.019 220.187 197.846 217.031 198.818C213.875 199.79 211.611 201.539 211.975 202.725C212.338 203.911 215.192 204.084 218.348 203.112Z" fill="#464D5F"/>
<path d="M231.977 198.603C235.133 197.631 237.397 195.882 237.033 194.696C236.67 193.51 233.816 193.336 230.66 194.308C227.503 195.28 225.239 197.029 225.603 198.215C225.967 199.401 228.82 199.575 231.977 198.603Z" fill="#464D5F"/>
<path d="M170.877 179.788C170.877 194.931 161.893 200.218 150.809 200.218C150.552 200.218 150.296 200.215 150.04 200.209C149.526 200.198 149.017 200.174 148.515 200.14C138.512 199.43 130.74 193.871 130.74 179.788C130.74 165.214 149.329 146.823 150.726 145.462L150.728 145.46C150.782 145.407 150.809 145.381 150.809 145.381C150.809 145.381 170.877 164.645 170.877 179.788Z" fill="#B9FFC0"/>
<path d="M150.077 197.901L157.417 187.626L150.059 199.03L150.039 200.209C149.526 200.198 149.017 200.174 148.515 200.14L149.306 184.99L149.3 184.872L149.313 184.85L149.388 183.419L142.011 171.987L149.411 182.346L149.428 182.65L150.026 171.203L143.711 159.39L150.103 169.194L150.725 145.462L150.728 145.381V145.46L150.624 164.174L156.911 156.755L150.598 165.786L150.432 176.034L156.302 166.199L150.407 177.542L150.314 183.24L158.837 169.55L150.283 185.228L150.077 197.901Z" fill="#97A0B8"/>
<path d="M249.799 186.103C249.799 202.6 240.012 208.36 227.937 208.36C227.658 208.36 227.378 208.356 227.1 208.35C226.54 208.338 225.986 208.311 225.438 208.274C214.541 207.501 206.075 201.445 206.075 186.103C206.075 170.226 226.326 150.192 227.847 148.71L227.849 148.707C227.908 148.65 227.937 148.622 227.937 148.622C227.937 148.622 249.799 169.607 249.799 186.103Z" fill="#B9FFC0"/>
<path d="M227.141 205.836L235.137 194.642L227.121 207.065L227.099 208.35C226.54 208.338 225.986 208.311 225.438 208.274L226.3 191.77L226.294 191.642L226.308 191.618L226.389 190.059L218.354 177.605L226.415 188.89L226.433 189.221L227.085 176.751L220.205 163.882L227.169 174.562L227.847 148.71L227.849 148.622V148.707L227.736 169.093L234.585 161.011L227.708 170.85L227.527 182.014L233.922 171.299L227.5 183.657L227.399 189.864L236.683 174.951L227.365 192.03L227.141 205.836Z" fill="#97A0B8"/>
</g>
<defs>
<clipPath id="clip0_1107_0">
<rect width="335" height="233" fill="white"/>
</clipPath>
</defs>
</svg>
